<svg fill="none" height="846" viewBox="0 0 428 846" width="428" xmlns="http://www.w3.org/2000/svg">
    <g opacity="0.08">
        <path
            d="M30.919 39.7528C30.3659 37.4677 30.6326 35.0833 31.6606 33.124C32.6885 31.1647 34.3934 29.7911 36.4002 29.3053L112.067 10.9895C114.074 10.5037 116.218 10.9456 118.028 12.2179C119.839 13.4902 121.166 15.4887 121.719 17.7738C122.272 20.0589 122.006 22.4433 120.978 24.4026C119.95 26.3619 118.245 27.7355 116.238 28.2213L112.455 29.1371L116.626 46.3689L131.759 42.7057C140.79 40.5198 150.44 42.5082 158.585 48.2336C166.731 53.959 172.705 62.9523 175.194 73.2352L206.478 202.474C208.788 212.012 207.93 221.963 204.067 230.425C200.204 238.886 193.608 245.264 185.54 248.339L187.682 257.188C188.235 259.473 187.968 261.857 186.94 263.817C185.912 265.776 184.207 267.149 182.2 267.635C180.194 268.121 178.049 267.679 176.239 266.407C174.429 265.134 173.101 263.136 172.548 260.851L170.463 252.235L94.7957 270.551L96.8812 279.167C97.4343 281.452 97.1676 283.836 96.1397 285.795C95.1118 287.755 93.4069 289.128 91.4001 289.614C89.3933 290.1 87.2489 289.658 85.4388 288.386C83.6286 287.113 82.301 285.115 81.7478 282.83L79.606 273.981C71.0246 274.937 62.2417 272.281 54.9368 266.523C47.6319 260.764 42.3177 252.307 40.0105 242.769L8.72721 113.53C6.23815 103.247 7.43846 92.5171 12.0641 83.7003C16.6897 74.8835 24.3617 68.7023 33.3923 66.5163L52.3091 61.9374L48.138 44.7055L40.5713 46.5371C38.5645 47.0229 36.4201 46.581 34.61 45.3087C32.7998 44.0364 31.4722 42.0379 30.919 39.7528ZM63.2714 41.0424L67.4425 58.2742L101.493 50.0321L97.3215 32.8002L63.2714 41.0424ZM57.2557 115.464C55.2489 115.95 53.544 117.324 52.5161 119.283C51.4882 121.242 51.2214 123.627 51.7746 125.912C52.3277 128.197 53.6554 130.195 55.4655 131.468C57.2757 132.74 59.42 133.182 61.4268 132.696L137.094 114.38C139.101 113.895 140.805 112.521 141.833 110.562C142.861 108.602 143.128 106.218 142.575 103.933C142.022 101.648 140.694 99.6493 138.884 98.377C137.074 97.1047 134.929 96.6628 132.923 97.1486L57.2557 115.464Z"
            fill="#189AB4" />
        <path
            d="M134.815 220.227L139.065 212.879L125.042 180.657C125.042 180.657 128.348 176.514 132.71 169.976C135.353 165.785 136.603 160.749 136.252 155.704L136.253 155.728L135.839 155.38C131.266 156.248 127.09 158.779 124.001 162.555L123.961 162.605C119.187 168.792 116.293 173.286 116.293 173.286L84.0139 166.497L78.4863 172.769L97.8272 180.815L106.794 186.055C102.229 191.773 98.5041 198.218 95.7503 205.16L95.9567 204.689L87.8109 202.181L84.612 206.637L94.0322 211.392C93.8293 212.462 93.7068 213.369 93.6235 214.277L93.6381 214.15L93.1363 214.849C93.2909 214.796 93.448 214.73 93.602 214.673C93.5929 214.848 93.5698 215.027 93.5612 215.207L94.0629 214.508C94.7432 214.246 95.5246 213.894 96.2906 213.498L96.4336 213.415L103.007 222.136L106.206 217.68L101.957 209.745C106.092 206.336 110.234 201.912 113.884 196.829C114.64 195.776 115.366 194.709 116.059 193.627L115.962 193.776L122.86 201.903L134.819 220.227L134.815 220.227Z"
            fill="#F8F8F8" />
    </g>
    <g opacity="0.08">
        <path
            d="M250.919 178.753C250.366 176.468 250.633 174.083 251.661 172.124C252.688 170.165 254.393 168.791 256.4 168.305L332.067 149.989C334.074 149.504 336.218 149.946 338.028 151.218C339.839 152.49 341.166 154.489 341.719 156.774C342.272 159.059 342.006 161.443 340.978 163.403C339.95 165.362 338.245 166.736 336.238 167.221L332.455 168.137L336.626 185.369L351.759 181.706C360.79 179.52 370.44 181.508 378.585 187.234C386.731 192.959 392.705 201.952 395.194 212.235L426.478 341.474C428.788 351.012 427.93 360.963 424.067 369.425C420.204 377.886 413.608 384.264 405.54 387.339L407.682 396.188C408.235 398.473 407.968 400.857 406.94 402.817C405.912 404.776 404.207 406.149 402.2 406.635C400.194 407.121 398.049 406.679 396.239 405.407C394.429 404.134 393.101 402.136 392.548 399.851L390.463 391.235L314.796 409.551L316.881 418.167C317.434 420.452 317.168 422.836 316.14 424.795C315.112 426.755 313.407 428.128 311.4 428.614C309.393 429.1 307.249 428.658 305.439 427.386C303.629 426.113 302.301 424.115 301.748 421.83L299.606 412.981C291.025 413.937 282.242 411.281 274.937 405.523C267.632 399.764 262.318 391.307 260.011 381.769L228.727 252.53C226.238 242.247 227.438 231.517 232.064 222.7C236.69 213.884 244.362 207.702 253.392 205.516L272.309 200.937L268.138 183.706L260.571 185.537C258.564 186.023 256.42 185.581 254.61 184.309C252.8 183.036 251.472 181.038 250.919 178.753ZM283.271 180.042L287.442 197.274L321.493 189.032L317.321 171.8L283.271 180.042ZM277.256 254.464C275.249 254.95 273.544 256.324 272.516 258.283C271.488 260.242 271.221 262.627 271.775 264.912C272.328 267.197 273.655 269.195 275.466 270.468C277.276 271.74 279.42 272.182 281.427 271.696L357.094 253.38C359.101 252.895 360.805 251.521 361.833 249.562C362.861 247.602 363.128 245.218 362.575 242.933C362.022 240.648 360.694 238.649 358.884 237.377C357.074 236.105 354.929 235.663 352.923 236.149L277.256 254.464Z"
            fill="#189AB4" />
        <path
            d="M354.815 359.227L359.065 351.879L345.042 319.657C345.042 319.657 348.348 315.514 352.71 308.976C355.353 304.785 356.603 299.749 356.252 294.704L356.253 294.728L355.839 294.38C351.266 295.248 347.09 297.779 344.001 301.555L343.961 301.605C339.187 307.792 336.293 312.286 336.293 312.286L304.014 305.497L298.486 311.769L317.827 319.815L326.794 325.055C322.229 330.773 318.504 337.218 315.75 344.16L315.957 343.689L307.811 341.181L304.612 345.637L314.032 350.392C313.829 351.462 313.707 352.369 313.624 353.277L313.638 353.15L313.136 353.849C313.291 353.796 313.448 353.73 313.602 353.673C313.593 353.848 313.57 354.027 313.561 354.207L314.063 353.508C314.743 353.246 315.525 352.894 316.291 352.498L316.434 352.415L323.007 361.136L326.206 356.68L321.957 348.745C326.092 345.336 330.234 340.912 333.884 335.829C334.64 334.776 335.366 333.709 336.059 332.627L335.962 332.776L342.86 340.903L354.819 359.227L354.815 359.227Z"
            fill="#F8F8F8" />
    </g>
    <g opacity="0.08">
        <path
            d="M30.919 426.753C30.3659 424.468 30.6326 422.083 31.6606 420.124C32.6885 418.165 34.3934 416.791 36.4002 416.305L112.067 397.989C114.074 397.504 116.218 397.946 118.028 399.218C119.839 400.49 121.166 402.489 121.719 404.774C122.272 407.059 122.006 409.443 120.978 411.403C119.95 413.362 118.245 414.736 116.238 415.221L112.455 416.137L116.626 433.369L131.759 429.706C140.79 427.52 150.44 429.508 158.585 435.234C166.731 440.959 172.705 449.952 175.194 460.235L206.478 589.474C208.788 599.012 207.93 608.963 204.067 617.425C200.204 625.886 193.608 632.264 185.54 635.339L187.682 644.188C188.235 646.473 187.968 648.857 186.94 650.817C185.912 652.776 184.207 654.149 182.2 654.635C180.194 655.121 178.049 654.679 176.239 653.407C174.429 652.134 173.101 650.136 172.548 647.851L170.463 639.235L94.7957 657.551L96.8812 666.167C97.4343 668.452 97.1676 670.836 96.1397 672.795C95.1118 674.755 93.4069 676.128 91.4001 676.614C89.3933 677.1 87.2489 676.658 85.4388 675.386C83.6286 674.113 82.301 672.115 81.7478 669.83L79.606 660.981C71.0246 661.937 62.2417 659.281 54.9368 653.523C47.6319 647.764 42.3177 639.307 40.0105 629.769L8.72721 500.53C6.23815 490.247 7.43846 479.517 12.0641 470.7C16.6897 461.884 24.3617 455.702 33.3923 453.516L52.3091 448.937L48.138 431.706L40.5713 433.537C38.5645 434.023 36.4201 433.581 34.61 432.309C32.7998 431.036 31.4722 429.038 30.919 426.753ZM63.2714 428.042L67.4425 445.274L101.493 437.032L97.3215 419.8L63.2714 428.042ZM57.2557 502.464C55.2489 502.95 53.544 504.324 52.5161 506.283C51.4882 508.242 51.2214 510.627 51.7746 512.912C52.3277 515.197 53.6554 517.195 55.4655 518.468C57.2757 519.74 59.42 520.182 61.4268 519.696L137.094 501.38C139.101 500.895 140.805 499.521 141.833 497.562C142.861 495.602 143.128 493.218 142.575 490.933C142.022 488.648 140.694 486.649 138.884 485.377C137.074 484.105 134.929 483.663 132.923 484.149L57.2557 502.464Z"
            fill="#189AB4" />
        <path
            d="M134.815 607.227L139.065 599.879L125.042 567.657C125.042 567.657 128.348 563.514 132.71 556.976C135.353 552.785 136.603 547.749 136.252 542.704L136.253 542.728L135.839 542.38C131.266 543.248 127.09 545.779 124.001 549.555L123.961 549.605C119.187 555.792 116.293 560.286 116.293 560.286L84.0139 553.497L78.4863 559.769L97.8272 567.815L106.794 573.055C102.229 578.773 98.5041 585.218 95.7503 592.16L95.9567 591.689L87.8109 589.181L84.612 593.637L94.0322 598.392C93.8293 599.462 93.7068 600.369 93.6235 601.277L93.6381 601.15L93.1363 601.849C93.2909 601.796 93.448 601.73 93.602 601.673C93.5929 601.848 93.5698 602.027 93.5612 602.207L94.0629 601.508C94.7432 601.246 95.5246 600.894 96.2906 600.498L96.4336 600.415L103.007 609.136L106.206 604.68L101.957 596.745C106.092 593.336 110.234 588.912 113.884 583.829C114.64 582.776 115.366 581.709 116.059 580.627L115.962 580.776L122.86 588.903L134.819 607.227L134.815 607.227Z"
            fill="#F8F8F8" />
    </g>
    <g opacity="0.08">
        <path
            d="M245.919 586.753C245.366 584.468 245.633 582.083 246.661 580.124C247.688 578.165 249.393 576.791 251.4 576.305L327.067 557.989C329.074 557.504 331.218 557.946 333.028 559.218C334.839 560.49 336.166 562.489 336.719 564.774C337.272 567.059 337.006 569.443 335.978 571.403C334.95 573.362 333.245 574.735 331.238 575.221L327.455 576.137L331.626 593.369L346.759 589.706C355.79 587.52 365.44 589.508 373.585 595.234C381.731 600.959 387.705 609.952 390.194 620.235L421.478 749.474C423.788 759.012 422.93 768.963 419.067 777.424C415.204 785.886 408.608 792.264 400.54 795.339L402.682 804.188C403.235 806.473 402.968 808.857 401.94 810.816C400.912 812.776 399.207 814.149 397.2 814.635C395.194 815.121 393.049 814.679 391.239 813.407C389.429 812.134 388.101 810.136 387.548 807.851L385.463 799.235L309.796 817.551L311.881 826.167C312.434 828.452 312.168 830.836 311.14 832.795C310.112 834.755 308.407 836.128 306.4 836.614C304.393 837.1 302.249 836.658 300.439 835.386C298.629 834.113 297.301 832.115 296.748 829.83L294.606 820.981C286.025 821.937 277.242 819.281 269.937 813.523C262.632 807.764 257.318 799.307 255.011 789.769L223.727 660.53C221.238 650.247 222.438 639.517 227.064 630.7C231.69 621.883 239.362 615.702 248.392 613.516L267.309 608.937L263.138 591.706L255.571 593.537C253.564 594.023 251.42 593.581 249.61 592.309C247.8 591.036 246.472 589.038 245.919 586.753ZM278.271 588.042L282.442 605.274L316.493 597.032L312.321 579.8L278.271 588.042ZM272.256 662.464C270.249 662.95 268.544 664.324 267.516 666.283C266.488 668.242 266.221 670.627 266.775 672.912C267.328 675.197 268.655 677.195 270.466 678.468C272.276 679.74 274.42 680.182 276.427 679.696L352.094 661.38C354.101 660.895 355.805 659.521 356.833 657.562C357.861 655.602 358.128 653.218 357.575 650.933C357.022 648.648 355.694 646.649 353.884 645.377C352.074 644.105 349.929 643.663 347.923 644.149L272.256 662.464Z"
            fill="#189AB4" />
        <path
            d="M349.815 767.227L354.065 759.879L340.042 727.657C340.042 727.657 343.348 723.514 347.71 716.976C350.353 712.785 351.603 707.749 351.252 702.704L351.253 702.728L350.839 702.38C346.266 703.248 342.09 705.779 339.001 709.555L338.961 709.605C334.187 715.792 331.293 720.286 331.293 720.286L299.014 713.497L293.486 719.769L312.827 727.815L321.794 733.055C317.229 738.773 313.504 745.218 310.75 752.16L310.957 751.689L302.811 749.181L299.612 753.637L309.032 758.392C308.829 759.462 308.707 760.369 308.624 761.277L308.638 761.15L308.136 761.849C308.291 761.796 308.448 761.73 308.602 761.673C308.593 761.848 308.57 762.027 308.561 762.207L309.063 761.508C309.743 761.246 310.525 760.894 311.291 760.498L311.434 760.415L318.007 769.136L321.206 764.68L316.957 756.745C321.092 753.336 325.234 748.912 328.884 743.829C329.64 742.776 330.366 741.709 331.059 740.627L330.962 740.776L337.86 748.902L349.819 767.227L349.815 767.227Z"
            fill="#F8F8F8" />
    </g>
</svg>
